<svg xmlns="http://www.w3.org/2000/svg" version="1.1" xmlns:xlink="http://www.w3.org/1999/xlink" xmlns:svgjs="http://svgjs.dev/svgjs" width="2000" height="535" viewBox="0 0 2000 535"><g transform="matrix(1,0,0,1,-1.2121212121212466,-1.0712465862802105)"><svg viewBox="0 0 396 106" data-background-color="#010c80" preserveAspectRatio="xMidYMid meet" height="535" width="2000" xmlns="http://www.w3.org/2000/svg" xmlns:xlink="http://www.w3.org/1999/xlink"><g id="tight-bounds" transform="matrix(1,0,0,1,0.2400000000000091,0.2122469871882231)"><svg viewBox="0 0 395.52 105.57550602562354" height="105.57550602562354" width="395.52"><g><svg viewBox="0 0 581.4037510253812 155.1931513443069" height="105.57550602562354" width="395.52"><g transform="matrix(1,0,0,1,0,45.095813543565235)"><svg viewBox="0 0 395.5199999999999 65.00152425717643" height="65.00152425717643" width="395.5199999999999"><g id="textblocktransform"><svg viewBox="0 0 395.5199999999999 65.00152425717643" height="65.00152425717643" width="395.5199999999999" id="textblock"><g><svg viewBox="0 0 395.5199999999999 65.00152425717643" height="65.00152425717643" width="395.5199999999999"><g transform="matrix(1,0,0,1,0,0)"><svg width="395.5199999999999" viewBox="2.95 -38.7 299.88 48.95" height="65.00152425717643" data-palette-color="#f8fafc"><g class="wordmark-text-0" data-fill-palette-color="primary" id="text-0"><path d="M33.5-17.7L33.5-3.1Q32.75-2.45 31.4-1.83 30.05-1.2 28.43-0.7 26.8-0.2 25.08 0.1 23.35 0.4 21.85 0.4L21.85 0.4Q17.5 0.4 14.03-0.95 10.55-2.3 8.08-4.7 5.6-7.1 4.28-10.35 2.95-13.6 2.95-17.4L2.95-17.4Q2.95-21.9 4.42-25.48 5.9-29.05 8.47-31.53 11.05-34 14.4-35.27 17.75-36.55 21.5-36.55L21.5-36.55Q24.65-36.55 27.35-35.8 30.05-35.05 32.1-33.9L32.1-33.9 30.45-29.45Q29.45-30.05 27.98-30.55 26.5-31.05 24.95-31.38 23.4-31.7 22.05-31.7L22.05-31.7Q18.85-31.7 16.25-30.73 13.65-29.75 11.8-27.93 9.95-26.1 8.95-23.53 7.95-20.95 7.95-17.75L7.95-17.75Q7.95-14.8 8.95-12.35 9.95-9.9 11.8-8.13 13.65-6.35 16.23-5.38 18.8-4.4 21.9-4.4L21.9-4.4Q23.75-4.4 25.55-4.78 27.35-5.15 28.65-5.85L28.65-5.85 28.65-13.05 21.45-13.05 21.45-17.7 33.5-17.7ZM50.2 0.5L50.2 0.5Q47.3 0.5 44.92-0.75 42.55-2 41.17-4.42 39.8-6.85 39.8-10.35L39.8-10.35Q39.8-13.8 41.25-16.32 42.7-18.85 45.12-20.2 47.55-21.55 50.45-21.55L50.45-21.55Q53.35-21.55 55.35-20.23 57.35-18.9 58.4-17.1L58.4-17.1 58.1-16.3 58.55-20.7 62.85-20.7 62.85 0 58.2 0 58.2-5.4 58.7-4.2Q58.5-3.7 57.82-2.93 57.15-2.15 56.02-1.35 54.9-0.55 53.45-0.03 52 0.5 50.2 0.5ZM51.45-3.35L51.45-3.35Q53.2-3.35 54.6-4 56-4.65 56.92-5.83 57.85-7 58.2-8.65L58.2-8.65 58.2-12.7Q57.8-14.2 56.8-15.33 55.8-16.45 54.4-17.07 53-17.7 51.3-17.7L51.3-17.7Q49.45-17.7 47.9-16.8 46.35-15.9 45.42-14.3 44.5-12.7 44.5-10.55L44.5-10.55Q44.5-8.55 45.45-6.9 46.4-5.25 48-4.3 49.6-3.35 51.45-3.35ZM79.3 0.5L79.3 0.5Q76.45 0.5 74.12-0.88 71.8-2.25 70.45-4.78 69.1-7.3 69.1-10.6L69.1-10.6Q69.1-14.05 70.52-16.5 71.95-18.95 74.4-20.25 76.85-21.55 79.9-21.55L79.9-21.55Q82.35-21.55 84.57-20.5 86.8-19.45 88.05-17.6L88.05-17.6 87.85-15.95 87.85-38.7 92.45-38.7 92.45 0 87.8 0 87.8-5.15 88.3-3.85Q86.85-1.95 84.55-0.73 82.25 0.5 79.3 0.5ZM80.75-3.45L80.75-3.45Q82.6-3.45 84.05-4.13 85.5-4.8 86.45-6 87.4-7.2 87.8-8.85L87.8-8.85 87.8-12.75Q87.4-14.25 86.37-15.38 85.35-16.5 83.92-17.18 82.5-17.85 80.75-17.85L80.75-17.85Q78.85-17.85 77.27-16.93 75.7-16 74.75-14.4 73.8-12.8 73.8-10.7L73.8-10.7Q73.8-8.65 74.75-7.03 75.7-5.4 77.3-4.42 78.9-3.45 80.75-3.45ZM110.49 10.25L110.49 10.25Q108.19 10.25 106.44 9.73 104.69 9.2 103.27 8.25 101.84 7.3 100.54 6.1L100.54 6.1 103.24 2.95Q104.89 4.5 106.59 5.35 108.29 6.2 110.39 6.2L110.39 6.2Q112.74 6.2 114.37 5.43 115.99 4.65 116.84 3.28 117.69 1.9 117.69 0.1L117.69 0.1 117.74-5.5 118.14-4.6Q117.24-2.45 114.89-0.98 112.54 0.5 109.19 0.5L109.19 0.5Q106.34 0.5 103.97-0.95 101.59-2.4 100.17-4.88 98.74-7.35 98.74-10.45L98.74-10.45Q98.74-13.7 100.24-16.18 101.74-18.65 104.19-20.1 106.64-21.55 109.54-21.55L109.54-21.55Q112.29-21.55 114.57-20.43 116.84-19.3 117.89-17.55L117.89-17.55 117.64-16.7 118.14-20.7 122.39-20.7 122.39 0.15Q122.39 2.95 120.94 5.25 119.49 7.55 116.84 8.9 114.19 10.25 110.49 10.25ZM103.39-10.55L103.39-10.55Q103.39-8.55 104.34-6.9 105.29-5.25 106.92-4.3 108.54-3.35 110.54-3.35L110.54-3.35Q112.39-3.35 113.87-4.03 115.34-4.7 116.34-5.88 117.34-7.05 117.74-8.6L117.74-8.6 117.74-12.7Q117.29-14.2 116.24-15.33 115.19-16.45 113.74-17.07 112.29-17.7 110.54-17.7L110.54-17.7Q108.54-17.7 106.92-16.8 105.29-15.9 104.34-14.28 103.39-12.65 103.39-10.55ZM140.04 0.5L140.04 0.5Q136.49 0.5 133.94-0.93 131.39-2.35 130.02-4.83 128.64-7.3 128.64-10.5L128.64-10.5Q128.64-13.55 130.19-16.05 131.74-18.55 134.34-20.05 136.94-21.55 140.14-21.55L140.14-21.55Q144.24-21.55 146.94-19.15 149.64-16.75 150.59-12.55L150.59-12.55 133.54-6.55 132.44-9.3 146.44-14.4 145.44-13.75Q144.84-15.4 143.44-16.63 142.04-17.85 139.79-17.85L139.79-17.85Q137.89-17.85 136.39-16.93 134.89-16 134.04-14.4 133.19-12.8 133.19-10.75L133.19-10.75Q133.19-8.6 134.09-6.98 134.99-5.35 136.57-4.42 138.14-3.5 140.14-3.5L140.14-3.5Q141.49-3.5 142.77-4 144.04-4.5 145.14-5.3L145.14-5.3 147.29-1.85Q145.74-0.8 143.82-0.15 141.89 0.5 140.04 0.5ZM158.44-20.6L158.44-29.8 163.09-29.8 163.09-20.6 168.79-20.6 168.79-16.95 163.09-16.95 163.09 0 158.44 0 158.44-16.95 154.64-16.95 154.64-20.6 158.44-20.6ZM203.84-17.7L203.84-3.1Q203.09-2.45 201.74-1.83 200.39-1.2 198.76-0.7 197.14-0.2 195.41 0.1 193.69 0.4 192.19 0.4L192.19 0.4Q187.84 0.4 184.36-0.95 180.89-2.3 178.41-4.7 175.94-7.1 174.61-10.35 173.29-13.6 173.29-17.4L173.29-17.4Q173.29-21.9 174.76-25.48 176.24-29.05 178.81-31.53 181.39-34 184.74-35.27 188.09-36.55 191.84-36.55L191.84-36.55Q194.99-36.55 197.69-35.8 200.39-35.05 202.44-33.9L202.44-33.9 200.79-29.45Q199.79-30.05 198.31-30.55 196.84-31.05 195.29-31.38 193.74-31.7 192.39-31.7L192.39-31.7Q189.19-31.7 186.59-30.73 183.99-29.75 182.14-27.93 180.29-26.1 179.29-23.53 178.29-20.95 178.29-17.75L178.29-17.75Q178.29-14.8 179.29-12.35 180.29-9.9 182.14-8.13 183.99-6.35 186.56-5.38 189.14-4.4 192.24-4.4L192.24-4.4Q194.09-4.4 195.89-4.78 197.69-5.15 198.99-5.85L198.99-5.85 198.99-13.05 191.79-13.05 191.79-17.7 203.84-17.7ZM211.93-20.7L216.08-20.7 216.53-14.7 216.28-15.5Q217.08-17.4 218.61-18.73 220.13-20.05 221.81-20.78 223.48-21.5 224.73-21.5L224.73-21.5 224.48-16.9Q222.13-17.05 220.36-16 218.58-14.95 217.56-13.2 216.53-11.45 216.53-9.45L216.53-9.45 216.53 0 211.93 0 211.93-20.7ZM228.93-10.55L228.93-10.55Q228.93-13.65 230.41-16.15 231.88-18.65 234.48-20.1 237.08-21.55 240.38-21.55L240.38-21.55Q243.78-21.55 246.33-20.1 248.88-18.65 250.28-16.15 251.68-13.65 251.68-10.55L251.68-10.55Q251.68-7.45 250.28-4.93 248.88-2.4 246.31-0.95 243.73 0.5 240.33 0.5L240.33 0.5Q237.03 0.5 234.46-0.88 231.88-2.25 230.41-4.73 228.93-7.2 228.93-10.55ZM233.58-10.5L233.58-10.5Q233.58-8.5 234.48-6.88 235.38-5.25 236.91-4.3 238.43-3.35 240.28-3.35L240.28-3.35Q242.23-3.35 243.76-4.3 245.28-5.25 246.13-6.88 246.98-8.5 246.98-10.5L246.98-10.5Q246.98-12.5 246.13-14.13 245.28-15.75 243.76-16.73 242.23-17.7 240.28-17.7L240.28-17.7Q238.38-17.7 236.86-16.7 235.33-15.7 234.46-14.08 233.58-12.45 233.58-10.5ZM266.63 0.6L266.38 0.6 254.88-20.7 260.38-20.7 268.18-4.25 265.33-4.35 272.48-20.7 277.68-20.7 266.63 0.6ZM292.28 0.5L292.28 0.5Q288.73 0.5 286.18-0.93 283.63-2.35 282.25-4.83 280.88-7.3 280.88-10.5L280.88-10.5Q280.88-13.55 282.43-16.05 283.98-18.55 286.58-20.05 289.18-21.55 292.38-21.55L292.38-21.55Q296.48-21.55 299.18-19.15 301.88-16.75 302.83-12.55L302.83-12.55 285.78-6.55 284.68-9.3 298.68-14.4 297.68-13.75Q297.08-15.4 295.68-16.63 294.28-17.85 292.03-17.85L292.03-17.85Q290.13-17.85 288.63-16.93 287.13-16 286.28-14.4 285.43-12.8 285.43-10.75L285.43-10.75Q285.43-8.6 286.33-6.98 287.23-5.35 288.8-4.42 290.38-3.5 292.38-3.5L292.38-3.5Q293.73-3.5 295-4 296.28-4.5 297.38-5.3L297.38-5.3 299.53-1.85Q297.98-0.8 296.05-0.15 294.13 0.5 292.28 0.5Z" fill="#f8fafc" data-fill-palette-color="primary"></path></g></svg></g></svg></g></svg></g></svg></g><g transform="matrix(1,0,0,1,426.2105996810743,0)"><svg viewBox="0 0 155.1931513443069 155.1931513443069" height="155.1931513443069" width="155.1931513443069"><g><svg></svg></g><g id="icon-0"><svg viewBox="0 0 155.1931513443069 155.1931513443069" height="155.1931513443069" width="155.1931513443069"><g><path d="M0 77.597c0-42.855 34.741-77.597 77.597-77.597 42.855 0 77.597 34.741 77.596 77.597 0 42.855-34.741 77.597-77.596 77.596-42.855 0-77.597-34.741-77.597-77.596zM77.597 149.331c39.618 0 71.735-32.117 71.734-71.734 0-39.618-32.117-71.735-71.734-71.735-39.618 0-71.735 32.117-71.735 71.735 0 39.618 32.117 71.735 71.735 71.734z" data-fill-palette-color="accent" fill="#f8fafc" stroke="transparent"></path></g><g transform="matrix(1,0,0,1,35.53173997149715,35.514456877306536)"><svg viewBox="0 0 84.12967140131259 84.16423758969383" height="84.16423758969383" width="84.12967140131259"><g><svg xmlns="http://www.w3.org/2000/svg" data-name="Layer 1" viewBox="1.9914483139484447 1.9792198461133779 60.008551686051554 60.03320727863281" x="0" y="0" height="84.16423758969383" width="84.12967140131259" class="icon-cg-0" data-fill-palette-color="accent" id="cg-0"><path class="cls-1" d="M61 31H31a1 1 0 0 0-1 1V61a1 1 0 0 0 1 1H61a1 1 0 0 0 1-1V32A1 1 0 0 0 61 31Zm-1 5.5a1.5 1.5 0 0 1-3 0V33h3Zm-5 0a1.5 1.5 0 0 1-3 0V33h3Zm-5 0a1.5 1.5 0 0 1-3 0V33h3Zm-5 0a1.5 1.5 0 0 1-3 0V33h3Zm-5 0a1.5 1.5 0 0 1-3 0V33h3ZM32 33h3v3.5a1.5 1.5 0 0 1-3 0Zm4 27V50h6V60Zm8 0V49a1 1 0 0 0-1-1H35a1 1 0 0 0-1 1V60H32V39.649a3.446 3.446 0 0 0 4-0.707 3.483 3.483 0 0 0 5 0 3.483 3.483 0 0 0 5 0 3.483 3.483 0 0 0 5 0 3.483 3.483 0 0 0 5 0 3.446 3.446 0 0 0 4 0.707V60Z" stroke="#f8fafc" stroke-miterlimit="10" fill="#f8fafc" data-fill-palette-color="accent"></path><path class="cls-1" d="M20.1 55a1 1 0 0 0 0.965-0.741l2.684-10v-0.007h0L24.6 41H28V39H23.826a1 1 0 0 0-0.968 0.748L22.01 43H4a1 1 0 0 0-0.966 1.259l2.683 10A1 1 0 0 0 6.683 55H8.5v1.184a3 3 0 1 0 2 0V55h6v1.184a3 3 0 1 0 2 0V55ZM9.5 60a1 1 0 1 1 1-1A1 1 0 0 1 9.5 60Zm8 0a1 1 0 1 1 1-1A1 1 0 0 1 17.5 60ZM5.3 45H21.479l-2.146 8H7.45Z" stroke="#f8fafc" stroke-miterlimit="10" fill="#f8fafc" data-fill-palette-color="accent"></path><path class="cls-1" d="M55 12H49.941a9 9 0 0 0-17.882 0h-8.11A11 11 0 1 0 7.465 22.49c0.012 0.008 0.021 0.019 0.034 0.027s0.033 0.015 0.049 0.024a10.939 10.939 0 0 0 2.508 1.047c0.082 0.023 0.165 0.043 0.248 0.064q0.522 0.132 1.063 0.213c0.1 0.016 0.2 0.034 0.306 0.047a10.049 10.049 0 0 0 2.654 0c0.1-0.013 0.2-0.031 0.306-0.047q0.542-0.081 1.063-0.213c0.083-0.021 0.166-0.041 0.248-0.064a10.939 10.939 0 0 0 2.508-1.047c0.016-0.009 0.033-0.015 0.049-0.024s0.022-0.019 0.034-0.027A11 11 0 0 0 23.949 14h8.11a9 9 0 0 0 17.882 0H54V25.586l-2.293-2.293-1.414 1.414 4 4a1 1 0 0 0 1.414 0l4-4-1.414-1.414L56 25.586V13A1 1 0 0 0 55 12ZM13 14a3 3 0 1 1 3-3A3 3 0 0 1 13 14Zm-0.856 2h1.712A3.147 3.147 0 0 1 17 19.144V21.05l-0.07 0.034a8.487 8.487 0 0 1-0.846 0.36l-0.072 0.026a9.111 9.111 0 0 1-6.024 0l-0.072-0.026a8.487 8.487 0 0 1-0.846-0.36L9 21.05V19.144A3.147 3.147 0 0 1 12.144 16ZM19 19.689v-0.545a5.126 5.126 0 0 0-2.641-4.466 5 5 0 1 0-6.718 0A5.126 5.126 0 0 0 7 19.144v0.545a9 9 0 1 1 12 0ZM34 13a7 7 0 0 1 6-6.92V8.039a3.207 3.207 0 0 0-2.251 3.037c0 2.258 1.78 2.8 2.958 3.163 1.313 0.4 1.544 0.589 1.544 1.254a1.252 1.252 0 0 1-2.5 0h-2A3.206 3.206 0 0 0 40 18.53v1.39A7 7 0 0 1 34 13Zm8 6.92V18.53a3.206 3.206 0 0 0 2.251-3.037c0-2.262-1.781-2.806-2.96-3.167-1.312-0.4-1.542-0.588-1.542-1.25a1.252 1.252 0 0 1 2.5 0h2A3.207 3.207 0 0 0 42 8.039V6.08a6.991 6.991 0 0 1 0 13.84Z" stroke="#f8fafc" stroke-miterlimit="10" fill="#f8fafc" data-fill-palette-color="accent"></path><path class="cls-1" d="M14 41V29.414l2.293 2.293 1.414-1.414-4-4a1 1 0 0 0-1.414 0l-4 4 1.414 1.414L12 29.414V41Z" stroke="#f8fafc" stroke-miterlimit="10" fill="#f8fafc" data-fill-palette-color="accent"></path><path class="cls-1" d="M57 42H47a1 1 0 0 0-1 1v7a1 1 0 0 0 1 1H57a1 1 0 0 0 1-1V43A1 1 0 0 0 57 42Zm-1 7H48V44h8Z" stroke="#f8fafc" stroke-miterlimit="10" fill="#f8fafc" data-fill-palette-color="accent"></path></svg></g></svg></g></svg></g></svg></g></svg></g><defs></defs></svg><rect width="395.52" height="105.57550602562354" fill="none" stroke="none" visibility="hidden"></rect></g></svg></g></svg>