<?xml version="1.0" encoding="UTF-8" standalone="no"?>
<!-- Created with Inkscape (http://www.inkscape.org/) -->

<svg
   version="1.1"
   id="svg2"
   width="557.10669"
   height="434.66666"
   viewBox="0 0 557.10669 434.66666"
   sodipodi:docname="register.eps"
   xmlns:inkscape="http://www.inkscape.org/namespaces/inkscape"
   xmlns:sodipodi="http://sodipodi.sourceforge.net/DTD/sodipodi-0.dtd"
   xmlns="http://www.w3.org/2000/svg"
   xmlns:svg="http://www.w3.org/2000/svg">
  <defs
     id="defs6" />
  <sodipodi:namedview
     id="namedview4"
     pagecolor="#ffffff"
     bordercolor="#000000"
     borderopacity="0.25"
     inkscape:showpageshadow="2"
     inkscape:pageopacity="0.0"
     inkscape:pagecheckerboard="0"
     inkscape:deskcolor="#d1d1d1" />
  <g
     id="g8"
     inkscape:groupmode="layer"
     inkscape:label="ink_ext_XXXXXX"
     transform="matrix(1.3333333,0,0,-1.3333333,0,434.66667)">
    <g
       id="g10"
       transform="scale(0.1)">
      <path
         d="m 351.602,20 c 0,0 236.796,876.301 1209.998,764 703.1,-81.199 824.6,403.5 933,669.3 99.4,243.7 804.5,554.4 1047.9,101.4 C 3894.2,900.199 3529,574.699 3711.6,351.301 3894.2,127.898 3835.3,13.1992 3835.3,13.1992 L 351.602,20"
         style="fill:#e2eefa;fill-opacity:1;fill-rule:nonzero;stroke:none"
         id="path12" />
      <path
         d="M 977.004,2761.8 H 3424.5 V 1058 H 977.004 v 1703.8"
         style="fill:#ffffff;fill-opacity:1;fill-rule:nonzero;stroke:none"
         id="path14" />
      <path
         d="M 977.004,2761.8 H 3424.5 V 1058 H 977.004 Z"
         style="fill:none;stroke:#314ea8;stroke-width:13.5;stroke-linecap:butt;stroke-linejoin:miter;stroke-miterlimit:10;stroke-dasharray:none;stroke-opacity:1"
         id="path16" />
      <path
         d="m 1295.5,2153.4 h 1049.7 c 30.32,0 54.9,-24.58 54.9,-54.9 v -258.7 c 0,-30.32 -24.58,-54.9 -54.9,-54.9 H 1295.5 c -30.32,0 -54.9,24.58 -54.9,54.9 v 258.7 c 0,30.32 24.58,54.9 54.9,54.9"
         style="fill:#f7c7e6;fill-opacity:1;fill-rule:nonzero;stroke:none"
         id="path18" />
      <path
         d="m 1247.4,1294.7 h 551 v -60.8 h -551 v 60.8"
         style="fill:#ffffff;fill-opacity:1;fill-rule:nonzero;stroke:none"
         id="path20" />
      <path
         d="m 1247.4,1294.7 h 551 v -60.8 h -551 z"
         style="fill:none;stroke:#314ea8;stroke-width:13.5;stroke-linecap:butt;stroke-linejoin:miter;stroke-miterlimit:10;stroke-dasharray:none;stroke-opacity:1"
         id="path22" />
      <path
         d="m 2829.5,1294.7 h 348.2 v -60.8 h -348.2 v 60.8"
         style="fill:#ffffff;fill-opacity:1;fill-rule:nonzero;stroke:none"
         id="path24" />
      <path
         d="m 2829.5,1294.7 h 348.2 v -60.8 h -348.2 z"
         style="fill:none;stroke:#314ea8;stroke-width:10.7;stroke-linecap:butt;stroke-linejoin:miter;stroke-miterlimit:10;stroke-dasharray:none;stroke-opacity:1"
         id="path26" />
      <path
         d="M 2396.8,1294.7 H 2745 v -60.8 h -348.2 v 60.8"
         style="fill:#f7c7e6;fill-opacity:1;fill-rule:nonzero;stroke:none"
         id="path28" />
      <path
         d="M 2396.8,1294.7 H 2745 v -60.8 h -348.2 z"
         style="fill:none;stroke:#314ea8;stroke-width:13.5;stroke-linecap:butt;stroke-linejoin:miter;stroke-miterlimit:10;stroke-dasharray:none;stroke-opacity:1"
         id="path30" />
      <path
         d="m 1240.6,1497.6 h 490.2 v -60.8 h -490.2 v 60.8"
         style="fill:#ffffff;fill-opacity:1;fill-rule:nonzero;stroke:none"
         id="path32" />
      <path
         d="m 1240.6,1497.6 h 490.2 v -60.8 h -490.2 z"
         style="fill:none;stroke:#314ea8;stroke-width:13.5;stroke-linecap:butt;stroke-linejoin:miter;stroke-miterlimit:10;stroke-dasharray:none;stroke-opacity:1"
         id="path34" />
      <g
         id="g36"
         transform="scale(10)">
        <text
           xml:space="preserve"
           transform="matrix(1,0,0,-1,138.6,189.92)"
           style="font-variant:normal;font-weight:normal;font-size:19.77px;font-family:MyriadPro;-inkscape-font-specification:MyriadPro-Regular;writing-mode:lr-tb;fill:#314ea8;fill-opacity:1;fill-rule:nonzero;stroke:none"
           id="text40"><tspan
             x="0 10.63626 20.3631 33.134521 37.85899 47.605598 57.43129 67.158127"
             y="0"
             sodipodi:role="line"
             id="tspan38">REGISTER</tspan></text>
      </g>
      <path
         d="m 1240.6,2525.2 h 791 v -60.8 h -791 v 60.8"
         style="fill:#ffffff;fill-opacity:1;fill-rule:nonzero;stroke:none"
         id="path42" />
      <path
         d="m 1240.6,2525.2 h 791 v -60.8 h -791 z"
         style="fill:none;stroke:#314ea8;stroke-width:13.5;stroke-linecap:butt;stroke-linejoin:miter;stroke-miterlimit:10;stroke-dasharray:none;stroke-opacity:1"
         id="path44" />
      <path
         d="m 1240.6,2335.9 h 490.2 v -60.8 h -490.2 v 60.8"
         style="fill:#ffffff;fill-opacity:1;fill-rule:nonzero;stroke:none"
         id="path46" />
      <path
         d="m 1240.6,2335.9 h 490.2 v -60.8 h -490.2 z"
         style="fill:none;stroke:#314ea8;stroke-width:13.5;stroke-linecap:butt;stroke-linejoin:miter;stroke-miterlimit:10;stroke-dasharray:none;stroke-opacity:1"
         id="path48" />
      <path
         d="M 977.004,2761.8 H 3424.5 V 2606.3 H 977.004 v 155.5"
         style="fill:#f7c7e6;fill-opacity:1;fill-rule:nonzero;stroke:none"
         id="path50" />
      <path
         d="M 503.699,1193.3 456.402,1091.9 348.199,490 300.898,408.801 268.801,306.398 c -1.082,-3.539 -0.117,-7.386 2.5,-10 v 0 c 3.941,-3.867 10.269,-3.808 14.137,0.133 0.613,0.617 1.132,1.321 1.566,2.071 l 27.394,49.398 -18.5,-98 c -0.988,-5.559 2.247,-11.012 7.602,-12.801 v 0 c 5.855,-1.988 12.219,1.153 14.203,7.012 0.035,0.098 0.067,0.187 0.094,0.289 l 37.105,117.5 -18.5,-136.301 c -0.832,-5.961 3.328,-11.469 9.297,-12.289 0.496,-0.078 1,-0.109 1.504,-0.109 v 0 c 4.52,0.121 8.504,3.031 10,7.301 L 395.199,328.199 390,252 c -0.496,-6.109 4.055,-11.461 10.16,-11.961 0.313,-0.027 0.625,-0.039 0.938,-0.039 v 0 c 4.898,-0.02 9.218,3.199 10.601,7.898 l 45,147.602 c 0,0 27,-67.602 81.098,-60.801 L 450,496.898 585.199,1010.8 l 51.903,88.3 -133.403,94.2"
         style="fill:#ffffff;fill-opacity:1;fill-rule:nonzero;stroke:none"
         id="path52" />
      <path
         d="M 503.699,1193.3 456.402,1091.9 348.199,490 300.898,408.801 268.801,306.398 c -1.082,-3.539 -0.117,-7.386 2.5,-10 v 0 c 3.941,-3.867 10.269,-3.808 14.137,0.133 0.613,0.617 1.132,1.321 1.566,2.071 l 27.394,49.398 -18.5,-98 c -0.988,-5.559 2.247,-11.012 7.602,-12.801 v 0 c 5.855,-1.988 12.219,1.153 14.203,7.012 0.035,0.098 0.067,0.187 0.094,0.289 l 37.105,117.5 -18.5,-136.301 c -0.832,-5.961 3.328,-11.469 9.297,-12.289 0.496,-0.078 1,-0.109 1.504,-0.109 v 0 c 4.52,0.121 8.504,3.031 10,7.301 L 395.199,328.199 390,252 c -0.496,-6.109 4.055,-11.461 10.16,-11.961 0.313,-0.027 0.625,-0.039 0.938,-0.039 v 0 c 4.898,-0.02 9.218,3.199 10.601,7.898 l 45,147.602 c 0,0 27,-67.602 81.098,-60.801 L 450,496.898 585.199,1010.8 l 51.903,88.3 z"
         style="fill:none;stroke:#314ea8;stroke-width:13.5;stroke-linecap:butt;stroke-linejoin:miter;stroke-miterlimit:10;stroke-dasharray:none;stroke-opacity:1"
         id="path54" />
      <path
         d="m 659.199,862 c 0,0 -40.601,-47.301 -47.301,-162.199 -6.699,-114.903 47.301,-547.699 47.301,-547.699 L 639.199,0 h 297.203 l 26.996,98 -26.996,764 H 659.199"
         style="fill:#314ea8;fill-opacity:1;fill-rule:nonzero;stroke:none"
         id="path56" />
      <path
         d="M 780.898,841.699 1037.8,111.602 1064.8,13.5 h 263.7 l 13.6,104.801 -216.4,723.398 H 780.898"
         style="fill:#ffffff;fill-opacity:1;fill-rule:nonzero;stroke:none"
         id="path58" />
      <path
         d="M 780.898,841.699 1037.8,111.602 1064.8,13.5 h 263.7 l 13.6,104.801 -216.4,723.398 z"
         style="fill:none;stroke:#314ea8;stroke-width:13.5;stroke-linecap:butt;stroke-linejoin:miter;stroke-miterlimit:10;stroke-dasharray:none;stroke-opacity:1"
         id="path60" />
      <path
         d="m 1362.3,1571.9 h 108.2 l 277.2,223.1 33.8,67.6 v 121.7 c 0,0 40.6,-20 33.8,-87.9 l 110.9,123.6 c 5.69,6.31 15.44,6.82 21.75,1.12 0.19,-0.17 0.37,-0.34 0.55,-0.52 v 0 c 5.15,-5.15 5.98,-13.2 2,-19.3 l -67.6,-104.5 c 0,0 33.8,6.8 27.1,-27 0,0 27,-6.8 20,-27 11.07,-3.47 17.23,-15.25 13.76,-26.32 -0.08,-0.26 -0.17,-0.52 -0.26,-0.78 l -115,-67.6 -276.9,-338.1 -210,-6.8 20.7,168.7"
         style="fill:#ffffff;fill-opacity:1;fill-rule:nonzero;stroke:none"
         id="path62" />
      <path
         d="m 1362.3,1571.9 h 108.2 l 277.2,223.1 33.8,67.6 v 121.7 c 0,0 40.6,-20 33.8,-87.9 l 110.9,123.6 c 5.69,6.31 15.44,6.82 21.75,1.12 0.19,-0.17 0.37,-0.34 0.55,-0.52 v 0 c 5.15,-5.15 5.98,-13.2 2,-19.3 l -67.6,-104.5 c 0,0 33.8,6.8 27.1,-27 0,0 27,-6.8 20,-27 11.07,-3.47 17.23,-15.25 13.76,-26.32 -0.08,-0.26 -0.17,-0.52 -0.26,-0.78 l -115,-67.6 -276.9,-338.1 -210,-6.8 z"
         style="fill:none;stroke:#314ea8;stroke-width:13.5;stroke-linecap:butt;stroke-linejoin:miter;stroke-miterlimit:10;stroke-dasharray:none;stroke-opacity:1"
         id="path64" />
      <path
         d="m 1420,1582.1 -27,-210 h -230 l -67.6,-277.2 54.1,-311.002 -527.496,34.204 128.492,419.198 v 101.4 l -128.492,-270.5 -148.703,74.4 c 0,0 135.199,419.2 297.398,473.3 H 1014.1 l 405.9,-33.8"
         style="fill:#f7c7e6;fill-opacity:1;fill-rule:nonzero;stroke:none"
         id="path66" />
      <path
         d="m 1420,1582.1 -27,-210 h -230 l -67.6,-277.2 54.1,-311.002 -527.496,34.204 128.492,419.198 v 101.4 l -128.492,-270.5 -148.703,74.4 c 0,0 135.199,419.2 297.398,473.3 H 1014.1 Z"
         style="fill:none;stroke:#314ea8;stroke-width:13.5;stroke-linecap:butt;stroke-linejoin:miter;stroke-miterlimit:10;stroke-dasharray:none;stroke-opacity:1"
         id="path68" />
      <path
         d="m 997.203,1544.9 19.997,169 c 0,0 135.2,-87.9 87.9,243.4 0,0 -108.202,114.9 -189.299,0 -81.098,-114.9 -74.399,-412.4 -74.399,-412.4 h 155.801"
         style="fill:#ffffff;fill-opacity:1;fill-rule:nonzero;stroke:none"
         id="path70" />
      <path
         d="m 997.203,1544.9 19.997,169 c 0,0 135.2,-87.9 87.9,243.4 0,0 -108.202,114.9 -189.299,0 -81.098,-114.9 -74.399,-412.4 -74.399,-412.4 z"
         style="fill:none;stroke:#314ea8;stroke-width:13.5;stroke-linecap:butt;stroke-linejoin:miter;stroke-miterlimit:10;stroke-dasharray:none;stroke-opacity:1"
         id="path72" />
      <path
         d="m 1037.8,1876.2 c 0,0 -101.398,-6.8 -20,-101.5 0,0 -54.101,-67.6 -33.8,-175.7 20.3,-108.1 134.9,-399 -162.5,-453 -297.398,-54 -324.602,210 -284,277.2 40.602,67.2 74.398,67.6 74.398,142 0,74.4 74.301,94.8 74.301,94.8 0,0 60.903,20 74.403,256.9 0,0 6.8,101.4 81.097,108.2 0,0 169.101,128.5 236.701,20 67.6,-108.5 27,-148.7 -40.6,-168.9"
         style="fill:#314ea8;fill-opacity:1;fill-rule:nonzero;stroke:none"
         id="path74" />
      <path
         d="m 1198.5,2793.3 c 0,-162.92 -132.07,-295 -295,-295 -162.926,0 -295,132.08 -295,295 0,162.93 132.074,295 295,295 162.2,0.72 294.28,-130.19 295,-292.39 0.01,-0.87 0.01,-1.74 0,-2.61"
         style="fill:#314ea8;fill-opacity:1;fill-rule:nonzero;stroke:none"
         id="path76" />
      <path
         d="m 897.402,3024.4 c 67.153,0 121.598,-54.44 121.598,-121.6 0,-67.16 -54.445,-121.6 -121.598,-121.6 -67.16,0 -121.601,54.44 -121.601,121.6 0,67.16 54.441,121.6 121.601,121.6"
         style="fill:#ffffff;fill-opacity:1;fill-rule:nonzero;stroke:none"
         id="path78" />
      <path
         d="m 897.402,3024.4 c 67.153,0 121.598,-54.44 121.598,-121.6 0,-67.16 -54.445,-121.6 -121.598,-121.6 -67.16,0 -121.601,54.44 -121.601,121.6 0,67.16 54.441,121.6 121.601,121.6 z"
         style="fill:none;stroke:#314ea8;stroke-width:13.5;stroke-linecap:butt;stroke-linejoin:miter;stroke-miterlimit:10;stroke-dasharray:none;stroke-opacity:1"
         id="path80" />
      <path
         d="m 1170.8,2668.3 c -69.26,-147.53 -244.999,-210.99 -392.534,-141.73 -59.321,27.85 -107.684,74.66 -137.465,133.03 131.152,148.55 357.89,162.65 506.439,31.5 8.2,-7.24 16.06,-14.85 23.56,-22.8"
         style="fill:#ffffff;fill-opacity:1;fill-rule:nonzero;stroke:none"
         id="path82" />
      <path
         d="m 1170.8,2668.3 c -69.26,-147.53 -244.999,-210.99 -392.534,-141.73 -59.321,27.85 -107.684,74.66 -137.465,133.03 131.152,148.55 357.89,162.65 506.439,31.5 8.2,-7.24 16.06,-14.85 23.56,-22.8 z"
         style="fill:none;stroke:#314ea8;stroke-width:13.5;stroke-linecap:butt;stroke-linejoin:miter;stroke-miterlimit:10;stroke-dasharray:none;stroke-opacity:1"
         id="path84" />
      <path
         d="m 1914.8,324.898 c -41.31,0.223 -74.62,33.891 -74.4,75.204 0.23,41.308 33.89,74.617 75.2,74.398 41.04,-0.219 74.23,-33.461 74.4,-74.5 0.39,-41.078 -32.6,-74.711 -73.69,-75.102 -0.5,-0.007 -1.01,-0.007 -1.51,0 z m 152.7,116.301 c -3.34,12.692 -8.24,24.922 -14.6,36.403 l 12.5,29 -43.6,42.597 -29.1,-12.398 c -11.41,6.488 -23.66,11.371 -36.4,14.5 l -10,30 H 1885 l -11.4,-30 c -12.66,-3.289 -24.86,-8.16 -36.3,-14.5 l -29.1,12.398 -42.6,-42.597 12.4,-29 c -6.49,-11.411 -11.37,-23.653 -14.5,-36.403 l -30,-11.398 V 368.5 l 30,-11.398 c 3.29,-12.704 8.16,-24.922 14.5,-36.403 l -12.4,-29.097 43.6,-42.602 29.1,12.5 c 11.36,-6.512 23.58,-11.391 36.3,-14.5 l 11.5,-30 h 60 l 11.4,30 c 12.7,3.281 24.92,8.16 36.4,14.5 l 29.1,-12.5 43.6,42.602 -12.4,29.097 c 6.51,11.403 11.39,23.653 14.5,36.403 l 30,11.398 V 430 l -31.2,11.199"
         style="fill:#314ea8;fill-opacity:1;fill-rule:nonzero;stroke:none"
         id="path86" />
      <path
         d="m 2416.5,517.199 c -63.18,0 -114.4,51.223 -114.4,114.403 0,63.187 51.22,114.398 114.4,114.398 63.18,0 114.4,-51.211 114.4,-114.398 0,-0.043 0,-0.071 0,-0.102 0.28,-62.852 -50.45,-114.02 -113.3,-114.301 -0.36,0 -0.73,0 -1.1,0 z M 2650,695.102 c -5.06,19.359 -12.56,38.019 -22.3,55.5 l 19.1,44.5 L 2580,860 2535.5,841 c -17.37,9.941 -36.06,17.422 -55.5,22.199 l -15.9,46.102 h -93.7 l -17.5,-46.102 c -19.37,-5.078 -38.05,-12.551 -55.6,-22.199 l -44.3,19 -65.1,-65.102 19,-44.5 c -9.99,-17.359 -17.46,-36.039 -22.2,-55.5 l -46.1,-17.5 v -93.699 l 46.1,-17.5 c 5.03,-19.359 12.49,-38.019 22.2,-55.5 l -19,-44.5 66.7,-65.097 44.4,19 c 17.43,-9.922 36.14,-17.391 55.6,-22.204 l 17.5,-46 h 92.1 l 17.4,46 c 19.39,5.051 38.07,12.512 55.6,22.204 l 44.5,-19 66.7,65.097 -19.1,44.5 c 10.02,17.36 17.53,36.043 22.3,55.5 l 46,17.5 v 93.699 l -47.6,17.704"
         style="fill:#314ea8;fill-opacity:1;fill-rule:nonzero;stroke:none"
         id="path88" />
      <path
         d="m 2214.2,2768.6 v 54.1 c 0,127.03 102.98,230 230,230 h 297.5 v -284 l -527.5,-0.1"
         style="fill:#314ea8;fill-opacity:1;fill-rule:nonzero;stroke:none"
         id="path90" />
      <path
         d="m 2214.2,2768.6 v 54.1 c 0,127.03 102.98,230 230,230 h 297.5 v -284 z"
         style="fill:none;stroke:#314ea8;stroke-width:13.5;stroke-linecap:butt;stroke-linejoin:miter;stroke-miterlimit:10;stroke-dasharray:none;stroke-opacity:1"
         id="path92" />
      <path
         d="m 3566.4,2847.2 v -890 h -618.6 c -136.31,0 -246.8,110.5 -246.8,246.8 v 646 c 0,0 -16.9,175.8 -241.7,202.9 H 3361 c 113.44,0 205.4,-91.96 205.4,-205.4 0,-0.1 0,-0.2 0,-0.3"
         style="fill:#ffffff;fill-opacity:1;fill-rule:nonzero;stroke:none"
         id="path94" />
      <path
         d="m 3566.4,2847.2 v -890 h -618.6 c -136.31,0 -246.8,110.5 -246.8,246.8 v 646 c 0,0 -16.9,175.8 -241.7,202.9 H 3361 c 113.44,0 205.4,-91.96 205.4,-205.4 0,-0.1 0,-0.2 0,-0.3 z"
         style="fill:none;stroke:#314ea8;stroke-width:13.5;stroke-linecap:butt;stroke-linejoin:miter;stroke-miterlimit:10;stroke-dasharray:none;stroke-opacity:1"
         id="path96" />
      <path
         d="m 3133.7,2146.6 h 804.6 c 0,0 0,-162.3 -148.8,-189.3 H 2985 c 0,0 155.5,27 148.7,189.3"
         style="fill:#314ea8;fill-opacity:1;fill-rule:nonzero;stroke:none"
         id="path98" />
      <path
         d="m 3133.7,2146.6 h 804.6 c 0,0 0,-162.3 -148.8,-189.3 H 2985 c 0,0 155.5,27 148.7,189.3 z"
         style="fill:none;stroke:#314ea8;stroke-width:13.5;stroke-linecap:butt;stroke-linejoin:miter;stroke-miterlimit:10;stroke-dasharray:none;stroke-opacity:1"
         id="path100" />
      <path
         d="m 2957.9,2815.9 h 486.8 v -60.8 h -486.8 v 60.8"
         style="fill:#ffffff;fill-opacity:1;fill-rule:nonzero;stroke:none"
         id="path102" />
      <path
         d="m 2957.9,2815.9 h 486.8 v -60.8 h -486.8 z"
         style="fill:none;stroke:#314ea8;stroke-width:13.5;stroke-linecap:butt;stroke-linejoin:miter;stroke-miterlimit:10;stroke-dasharray:none;stroke-opacity:1"
         id="path104" />
      <path
         d="m 2859.9,2815.9 c 16.79,0 30.4,-13.61 30.4,-30.4 0,-16.79 -13.61,-30.4 -30.4,-30.4 -16.79,0 -30.4,13.61 -30.4,30.4 0,16.79 13.61,30.4 30.4,30.4"
         style="fill:#ffffff;fill-opacity:1;fill-rule:nonzero;stroke:none"
         id="path106" />
      <path
         d="m 2859.9,2815.9 c 16.79,0 30.4,-13.61 30.4,-30.4 0,-16.79 -13.61,-30.4 -30.4,-30.4 -16.79,0 -30.4,13.61 -30.4,30.4 0,16.79 13.61,30.4 30.4,30.4 z"
         style="fill:none;stroke:#314ea8;stroke-width:13.5;stroke-linecap:butt;stroke-linejoin:miter;stroke-miterlimit:10;stroke-dasharray:none;stroke-opacity:1"
         id="path108" />
      <path
         d="m 2957.9,2694.2 h 486.8 v -60.8 h -486.8 v 60.8"
         style="fill:#ffffff;fill-opacity:1;fill-rule:nonzero;stroke:none"
         id="path110" />
      <path
         d="m 2957.9,2694.2 h 486.8 v -60.8 h -486.8 z"
         style="fill:none;stroke:#314ea8;stroke-width:13.5;stroke-linecap:butt;stroke-linejoin:miter;stroke-miterlimit:10;stroke-dasharray:none;stroke-opacity:1"
         id="path112" />
      <path
         d="m 2859.9,2694.2 c 16.79,0 30.4,-13.61 30.4,-30.4 0,-16.79 -13.61,-30.4 -30.4,-30.4 -16.79,0 -30.4,13.61 -30.4,30.4 0,16.79 13.61,30.4 30.4,30.4"
         style="fill:#ffffff;fill-opacity:1;fill-rule:nonzero;stroke:none"
         id="path114" />
      <path
         d="m 2859.9,2694.2 c 16.79,0 30.4,-13.61 30.4,-30.4 0,-16.79 -13.61,-30.4 -30.4,-30.4 -16.79,0 -30.4,13.61 -30.4,30.4 0,16.79 13.61,30.4 30.4,30.4 z"
         style="fill:none;stroke:#314ea8;stroke-width:13.5;stroke-linecap:butt;stroke-linejoin:miter;stroke-miterlimit:10;stroke-dasharray:none;stroke-opacity:1"
         id="path116" />
      <path
         d="m 2957.9,2572.5 h 486.8 v -60.8 h -486.8 v 60.8"
         style="fill:#ffffff;fill-opacity:1;fill-rule:nonzero;stroke:none"
         id="path118" />
      <path
         d="m 2957.9,2572.5 h 486.8 v -60.8 h -486.8 z"
         style="fill:none;stroke:#314ea8;stroke-width:13.5;stroke-linecap:butt;stroke-linejoin:miter;stroke-miterlimit:10;stroke-dasharray:none;stroke-opacity:1"
         id="path120" />
      <path
         d="m 2859.9,2572.5 c 16.79,0 30.4,-13.61 30.4,-30.4 0,-16.79 -13.61,-30.4 -30.4,-30.4 -16.79,0 -30.4,13.61 -30.4,30.4 0,16.79 13.61,30.4 30.4,30.4"
         style="fill:#ffffff;fill-opacity:1;fill-rule:nonzero;stroke:none"
         id="path122" />
      <path
         d="m 2859.9,2572.5 c 16.79,0 30.4,-13.61 30.4,-30.4 0,-16.79 -13.61,-30.4 -30.4,-30.4 -16.79,0 -30.4,13.61 -30.4,30.4 0,16.79 13.61,30.4 30.4,30.4 z"
         style="fill:none;stroke:#314ea8;stroke-width:13.5;stroke-linecap:butt;stroke-linejoin:miter;stroke-miterlimit:10;stroke-dasharray:none;stroke-opacity:1"
         id="path124" />
      <path
         d="m 2957.9,2444.1 h 486.8 v -60.8 h -486.8 v 60.8"
         style="fill:#ffffff;fill-opacity:1;fill-rule:nonzero;stroke:none"
         id="path126" />
      <path
         d="m 2957.9,2444.1 h 486.8 v -60.8 h -486.8 z"
         style="fill:none;stroke:#314ea8;stroke-width:13.5;stroke-linecap:butt;stroke-linejoin:miter;stroke-miterlimit:10;stroke-dasharray:none;stroke-opacity:1"
         id="path128" />
      <path
         d="m 2859.9,2444.1 c 16.79,0 30.4,-13.61 30.4,-30.4 0,-16.79 -13.61,-30.4 -30.4,-30.4 -16.79,0 -30.4,13.61 -30.4,30.4 0,16.79 13.61,30.4 30.4,30.4"
         style="fill:#ffffff;fill-opacity:1;fill-rule:nonzero;stroke:none"
         id="path130" />
      <path
         d="m 2859.9,2444.1 c 16.79,0 30.4,-13.61 30.4,-30.4 0,-16.79 -13.61,-30.4 -30.4,-30.4 -16.79,0 -30.4,13.61 -30.4,30.4 0,16.79 13.61,30.4 30.4,30.4 z"
         style="fill:none;stroke:#314ea8;stroke-width:13.5;stroke-linecap:butt;stroke-linejoin:miter;stroke-miterlimit:10;stroke-dasharray:none;stroke-opacity:1"
         id="path132" />
      <path
         d="m 2957.9,2322.4 h 486.8 v -60.8 h -486.8 v 60.8"
         style="fill:#ffffff;fill-opacity:1;fill-rule:nonzero;stroke:none"
         id="path134" />
      <path
         d="m 2957.9,2322.4 h 486.8 v -60.8 h -486.8 z"
         style="fill:none;stroke:#314ea8;stroke-width:13.5;stroke-linecap:butt;stroke-linejoin:miter;stroke-miterlimit:10;stroke-dasharray:none;stroke-opacity:1"
         id="path136" />
      <path
         d="m 2859.9,2322.4 c 16.79,0 30.4,-13.61 30.4,-30.4 0,-16.79 -13.61,-30.4 -30.4,-30.4 -16.79,0 -30.4,13.61 -30.4,30.4 0,16.79 13.61,30.4 30.4,30.4"
         style="fill:#ffffff;fill-opacity:1;fill-rule:nonzero;stroke:none"
         id="path138" />
      <path
         d="m 2859.9,2322.4 c 16.79,0 30.4,-13.61 30.4,-30.4 0,-16.79 -13.61,-30.4 -30.4,-30.4 -16.79,0 -30.4,13.61 -30.4,30.4 0,16.79 13.61,30.4 30.4,30.4 z"
         style="fill:none;stroke:#314ea8;stroke-width:13.5;stroke-linecap:butt;stroke-linejoin:miter;stroke-miterlimit:10;stroke-dasharray:none;stroke-opacity:1"
         id="path140" />
      <path
         d="m 3462.2,3260 c 104.99,0 190.1,-85.11 190.1,-190.1 0,-104.99 -85.11,-190.1 -190.1,-190.1 -104.99,0 -190.1,85.11 -190.1,190.1 0,104.99 85.11,190.1 190.1,190.1"
         style="fill:#314ea8;fill-opacity:1;fill-rule:nonzero;stroke:none"
         id="path142" />
      <path
         d="m 3433.8,2958 -100.8,84.9 c -5.14,4.36 -5.76,12.06 -1.4,17.2 v 0 l 7.2,8.6 c 4.42,5.05 12.07,5.63 17.2,1.3 l 74,-62.3 138.5,156.2 c 4.52,5.03 12.24,5.48 17.3,1 l 8.4,-7.4 c 5.06,-4.48 5.55,-12.21 1.1,-17.3 L 3433.8,2958"
         style="fill:#ffffff;fill-opacity:1;fill-rule:nonzero;stroke:none"
         id="path144" />
      <path
         d="M 0,13.5 H 4178.3"
         style="fill:none;stroke:#314ea8;stroke-width:13.5;stroke-linecap:butt;stroke-linejoin:miter;stroke-miterlimit:10;stroke-dasharray:none;stroke-opacity:1"
         id="path146" />
    </g>
  </g>
</svg>
